<?xml version="1.0" standalone="no"?>
<!DOCTYPE svg PUBLIC "-//W3C//DTD SVG 20010904//EN"
 "http://www.w3.org/TR/2001/REC-SVG-20010904/DTD/svg10.dtd">
<svg version="1.0" xmlns="http://www.w3.org/2000/svg"
 width="700.000000pt" height="700.000000pt" viewBox="0 0 700.000000 700.000000"
 preserveAspectRatio="xMidYMid meet">
<metadata>
Created by potrace 1.11, written by Peter Selinger 2001-2013
</metadata>
<g transform="translate(0.000000,700.000000) scale(0.100000,-0.100000)"
fill="#000000" stroke="none">
<path d="M20 3500 l0 -3480 1705 0 1705 0 37 58 c207 327 606 643 1105 876
l125 59 -33 131 c-68 267 -141 679 -175 989 l-12 107 -51 -31 c-142 -85 -280
-135 -476 -171 -97 -18 -158 -22 -383 -24 l-269 -2 -33 -49 c-79 -118 -248
-176 -395 -134 -115 32 -224 150 -250 269 -26 122 13 252 98 334 87 84 168
114 285 106 93 -6 169 -42 231 -108 43 -46 96 -138 96 -166 0 -32 430 -24 610
10 183 36 361 114 454 199 l57 52 -12 180 c-15 231 -15 789 0 970 23 276 65
536 111 689 10 33 23 113 30 176 21 215 60 350 160 555 178 363 479 634 834
750 114 37 289 68 362 63 l49 -3 43 -80 44 -80 -51 -95 c-27 -53 -93 -206
-146 -340 -195 -498 -266 -631 -421 -793 -158 -163 -336 -237 -571 -237 l-112
0 -10 -37 c-32 -121 -58 -279 -81 -498 -30 -274 -22 -940 15 -1345 22 -232 26
-260 39 -260 6 0 44 15 83 34 133 64 282 177 354 267 l32 40 -21 28 c-11 16
-28 55 -38 86 -46 162 39 346 196 423 49 24 67 27 155 27 91 0 105 -3 158 -30
75 -37 149 -117 178 -193 35 -89 32 -198 -8 -282 -70 -150 -220 -232 -383
-210 -49 6 -56 5 -69 -14 -31 -47 -191 -196 -261 -243 -98 -66 -233 -137 -302
-158 l-54 -17 18 -117 c25 -168 64 -365 104 -531 l36 -146 234 79 c522 175
1125 293 1589 312 77 3 164 8 193 11 l52 5 0 2735 0 2734 -3480 0 -3480 0 0
-3480z"/>
<path d="M5650 5624 c-407 -137 -728 -514 -820 -963 -11 -55 -20 -111 -20
-125 0 -25 3 -26 53 -26 142 1 285 50 382 130 117 99 230 288 340 575 32 83
84 214 115 293 66 161 68 156 -50 116z"/>
<path d="M5444 2810 c-29 -12 -71 -64 -79 -99 -4 -20 0 -45 13 -74 56 -126
242 -86 242 52 0 93 -91 156 -176 121z"/>
<path d="M2921 2293 c-51 -26 -76 -66 -75 -117 3 -125 166 -173 239 -69 72
103 -53 244 -164 186z"/>
<path d="M6680 1259 c-649 -51 -1350 -224 -1910 -471 -247 -109 -521 -270
-710 -417 -89 -69 -262 -236 -318 -309 l-34 -42 1636 0 1636 0 0 625 0 625
-97 -1 c-54 -1 -145 -5 -203 -10z"/>
</g>
</svg>
