<svg xmlns="http://www.w3.org/2000/svg" fill-rule="evenodd" version="1.1" overflow="visible" width="360" height="360" viewBox="0 0 360 360"><g transform="scale(1 -1)"><g transform="translate(0 -360)"><rect x="0" y="0" width="360" height="360" fill="#ffffff"/><path d="M0 0L0 360 360 360 360 76.5 349 76.2C321.7 74.8 288.3 68.7 257.8 57.5L252.1 55.3 251 59.1C248.1 69.9 245.5 83.1 243.5 97.4L243.4 98.4 245 98.8C247 99.3 249.1 100.1 251.1 101 255.2 102.9 259.5 105.4 263.4 108.2 267.8 111.4 272.8 115.6 275.9 120.4L276.6 121.6 279 120.8C280.1 120.6 281.3 120.5 282.5 120.5 292.3 120.5 300.3 128.4 300.3 138.3 300.3 148.1 292.3 156.1 282.5 156.1 272.8 156.1 264.8 148.1 264.8 138.3 264.8 135.8 265.3 133.5 266.2 131.3L268.6 127.8 268.5 127.4C268 126.6 267.3 125.5 266.2 124.1 264.1 121.6 261.1 119 257.6 116.5 254.2 114 250.4 111.8 247 110.2 245.2 109.4 243.6 108.8 242.2 108.4L242 108.4 241.9 109.1C237.2 148.7 236.7 193.9 244.5 221L244.5 221.2 245.1 221.1C268.8 218.9 281.7 231.4 290.1 247.3 298.9 263.8 303 282.9 311.2 295.2L307 303C269 303 239.9 269.8 236.4 233.9L236.1 227.7 234.9 224.1C228.7 202.4 227.4 170.7 229.3 138.9L229.9 129.7 225.4 125.2C218.2 119.7 208.9 116.7 199.2 115.3 189.5 114 179.7 114.2 172 114.8L170.5 115 170.4 115.6C168.7 123.7 161.6 129.8 153 129.8 143.2 129.8 135.2 121.8 135.2 112 135.2 102.1 143.2 94.2 153 94.2 157.9 94.2 162.3 96.2 165.6 99.4L169.3 104.9 170.7 104.8C174.9 104.5 179.7 104.2 184.9 104.3 189.9 104.3 195.2 104.6 200.6 105.4 207.7 106.4 215 108.2 221.8 111.4L231 116.9 231.2 115.3C233.6 92 237.5 70.1 242.1 53.9L242.8 51.5 232.4 46.8C211.2 36.3 192.9 23 181.3 6.8L176.9 0 0 0M188.9 0L191.1 3.2C221.1 41.7 295.5 63.4 349.1 66.1L360 66.4 360 0 188.9 0M153 104.3C148.7 104.3 145.2 107.8 145.2 112 145.2 116.2 148.7 119.7 153 119.7 157.3 119.7 160.8 116.2 160.8 112 160.8 107.8 157.3 104.3 153 104.3M282.5 130.6C278.2 130.6 274.8 134.1 274.8 138.3 274.8 142.5 278.2 146 282.5 146 286.9 146 290.3 142.5 290.3 138.3 290.3 134.1 286.9 130.6 282.5 130.6M249.4 231L246.2 231.2 246.3 233.1C249 260.4 268.6 285.3 294.6 291.5L298.1 292.1 296.8 289.6C291.4 277.5 287.3 263.3 281.3 252.1 274.7 239.6 265.9 230.6 249.4 231Z" stroke="none" fill="#ff0000"/></g></g></svg>